<svg width="16" height="16" viewBox="0 0 16 16" fill="none" xmlns="http://www.w3.org/2000/svg">
<path d="M14.5407 16H11.9507L12.1304 13.713H10.8595L10.6798 16H5.3158L5.13613 13.713H3.86524L4.04492 16H1.45494L0 6.09414L3.63736 0H12.3626L16 6.09414L14.5407 16ZM11.6352 3.04937H9.29937L9.45713 4.19288H6.54725L6.70501 3.04937H4.36045L2.90551 6.09874L3.63298 12.1929H12.3583L13.0857 6.09874L11.6352 3.04937ZM10.3599 10.1676C10.1583 10.1676 9.99617 9.53387 9.99617 8.74856C9.99617 7.96785 10.1583 7.32951 10.3599 7.32951C10.5615 7.32951 10.7236 7.96326 10.7236 8.74856C10.7236 9.53387 10.5615 10.1676 10.3599 10.1676ZM5.77157 10.287C5.56998 10.287 5.40783 9.65327 5.40783 8.86797C5.40783 8.08266 5.56998 7.44891 5.77157 7.44891C5.97316 7.44891 6.13531 8.08266 6.13531 8.86797C6.13531 9.65327 5.97316 10.287 5.77157 10.287Z" fill="white" fill-opacity="0.75"/>
</svg>
