<svg width="16" height="16" viewBox="0 0 16 16" fill="none" xmlns="http://www.w3.org/2000/svg">
<path d="M1.91999 8C1.91999 4.6421 4.6421 1.91999 8 1.91999C9.35174 1.91999 10.5997 2.36038 11.6095 3.10678C11.8744 2.48337 12.4082 2.00178 13.0652 1.80756C11.6863 0.678564 9.92185 0 8 0C3.58172 0 0 3.58172 0 8C0 12.4183 3.58172 16 8 16C12.4183 16 16 12.4183 16 8C16 7.07528 15.8427 6.18574 15.5531 5.35769C15.1589 5.89051 14.5388 6.246 13.8343 6.28241C13.9941 6.82641 14.08 7.40262 14.08 8C14.08 11.3579 11.3579 14.08 8 14.08C4.6421 14.08 1.91999 11.3579 1.91999 8Z" fill="white" fill-opacity="0.75"/>
<path d="M15.8357 6.3791C15.7638 6.02992 15.6691 5.6889 15.5533 5.35767C15.1592 5.89049 14.539 6.24597 13.8345 6.28238C13.9475 6.66715 14.0236 7.06808 14.0584 7.4812C14.8004 7.38997 15.4418 6.97367 15.8357 6.3791Z" fill="white" fill-opacity="0.75"/>
<path d="M7.99999 11.5C9.92845 11.5 11.5 9.93142 11.5 7.99999C11.5 6.07152 9.93143 4.5 7.99999 4.5C6.06855 4.5 4.5 6.07152 4.5 7.99999C4.5 9.92845 6.07153 11.5 7.99999 11.5Z" fill="white" fill-opacity="0.75"/>
<path d="M13.25 4.99999C14.2165 4.99999 15 4.21649 15 3.25C15 2.2835 14.2165 1.5 13.25 1.5C12.2835 1.5 11.5 2.2835 11.5 3.25C11.5 4.21649 12.2835 4.99999 13.25 4.99999Z" fill="white" fill-opacity="0.75"/>
</svg>
