<svg width="32" height="32" viewBox="0 0 32 32" fill="none" xmlns="http://www.w3.org/2000/svg">
<path d="M3.83999 16C3.83999 9.28421 9.28421 3.83999 16 3.83999C18.7035 3.83999 21.1995 4.72076 23.2191 6.21356C23.7488 4.96675 24.8163 4.00357 26.1305 3.61513C23.3726 1.35713 19.8437 0 16 0C7.16344 0 0 7.16344 0 16C0 24.8365 7.16344 32 16 32C24.8365 32 32 24.8365 32 16C32 14.1506 31.6854 12.3715 31.1062 10.7154C30.3178 11.781 29.0775 12.492 27.6685 12.5648C27.9882 13.6528 28.16 14.8052 28.16 16C28.16 22.7158 22.7158 28.16 16 28.16C9.28421 28.16 3.83999 22.7158 3.83999 16Z" fill="#D7DAE0"/>
<path d="M31.6709 12.7583C31.5271 12.06 31.3378 11.3779 31.1061 10.7155C30.3179 11.7811 29.0776 12.4921 27.6685 12.5649C27.8946 13.3344 28.0467 14.1363 28.1164 14.9625C29.6004 14.7801 30.8831 13.9475 31.6709 12.7583Z" fill="#D7DAE0"/>
<path d="M16 23.0001C19.8569 23.0001 23 19.863 23 16.0001C23 12.1432 19.8629 9.00012 16 9.00012C12.1371 9.00012 9 12.1432 9 16.0001C9 19.857 12.1431 23.0001 16 23.0001Z" fill="#D7DAE0"/>
<path d="M26.5 9.99998C28.433 9.99998 30 8.43299 30 6.5C30 4.567 28.433 3 26.5 3C24.567 3 23 4.567 23 6.5C23 8.43299 24.567 9.99998 26.5 9.99998Z" fill="#D7DAE0"/>
</svg>
