<svg width="16" height="16" viewBox="0 0 16 16" fill="none" xmlns="http://www.w3.org/2000/svg">
<path d="M11.9034 6.2187L13.2306 3.91964C13.2662 3.85792 13.2759 3.78464 13.2577 3.71578C13.2394 3.64693 13.1946 3.5881 13.1331 3.55214C13.1027 3.53431 13.0691 3.52268 13.0342 3.51793C12.9993 3.51318 12.9638 3.51541 12.9298 3.52448C12.8958 3.53355 12.8639 3.54928 12.836 3.57076C12.808 3.59225 12.7847 3.61906 12.7672 3.64964L11.4234 5.97839C10.3975 5.50964 9.24281 5.2487 8.00094 5.2487C6.75906 5.2487 5.60437 5.50995 4.57844 5.97839L3.23469 3.64964C3.19888 3.58797 3.14005 3.54306 3.07113 3.52477C3.00221 3.50649 2.92885 3.51633 2.86719 3.55214C2.80552 3.58794 2.76061 3.64677 2.74233 3.71569C2.72404 3.78461 2.73388 3.85797 2.76969 3.91964L4.09375 6.2187C1.80625 7.45745 0.255937 9.77401 0 12.4859H16C15.7441 9.77401 14.1938 7.45745 11.9034 6.2187V6.2187ZM4.32656 10.239C4.19393 10.239 4.06427 10.1997 3.95398 10.126C3.8437 10.0523 3.75774 9.94756 3.70699 9.82502C3.65623 9.70248 3.64295 9.56764 3.66882 9.43755C3.6947 9.30747 3.75857 9.18797 3.85236 9.09418C3.94615 9.00039 4.06564 8.93652 4.19573 8.91065C4.32582 8.88477 4.46066 8.89805 4.5832 8.94881C4.70574 8.99957 4.81048 9.08552 4.88417 9.19581C4.95786 9.30609 4.99719 9.43575 4.99719 9.56839C4.9971 9.74622 4.92642 9.91675 4.80067 10.0425C4.67493 10.1682 4.5044 10.2389 4.32656 10.239ZM11.6703 10.239C11.5378 10.2385 11.4084 10.1987 11.2985 10.1246C11.1886 10.0506 11.1031 9.94567 11.0527 9.82308C11.0024 9.70049 10.9895 9.56574 11.0157 9.43584C11.0419 9.30594 11.106 9.1867 11.1999 9.0932C11.2938 8.99969 11.4133 8.9361 11.5433 8.91045C11.6733 8.8848 11.808 8.89824 11.9304 8.94908C12.0528 8.99992 12.1574 9.08588 12.2309 9.1961C12.3045 9.30632 12.3437 9.43587 12.3438 9.56839C12.3437 9.65657 12.3263 9.74389 12.2925 9.82534C12.2587 9.90678 12.2091 9.98077 12.1467 10.0431C12.0843 10.1053 12.0102 10.1547 11.9286 10.1883C11.8471 10.222 11.7597 10.2392 11.6716 10.239H11.6703Z" fill="black" fill-opacity="0.75"/>
</svg>
